<svg xmlns="http://www.w3.org/2000/svg" viewBox="0 0 748.4 241.69"><defs><style>.cls-1,.cls-4{fill:#fff;stroke-miterlimit:10;stroke-width:3px;}.cls-1{stroke:#fdc100;}.cls-2{fill:#fdc100;}.cls-3{fill:#25397e;}.cls-4{stroke:#25397e;}</style></defs><g id="Calque_2" data-name="Calque 2"><g id="Calque_1-2" data-name="Calque 1"><path class="cls-1" d="M633.89,147.66h-96.8q.55,19.69,12.14,30.37t31.82,10.68a70.17,70.17,0,0,0,41.74-13.59v25.93q-19.41,12.21-51.31,12.2-31.34,0-49.15-19.34t-17.82-54.43q0-33.15,19.62-54T572.87,64.6q29.11,0,45.07,18.72t15.95,52Zm-31.07-22.74q-.14-17.34-8.18-27t-22.19-9.64A31.2,31.2,0,0,0,549,98.43q-9.65,10.13-11.86,26.49Z"/><path class="cls-1" d="M746.9,98.57Q741.08,94,730.12,94q-14.28,0-23.85,12.9T696.7,142v67.95H664.53v-142H696.7V97.18h.56q4.71-15,14.49-23.36a32.73,32.73,0,0,1,21.84-8.39q8.74,0,13.31,2.63Z"/><path class="cls-1" d="M1.64,202V168a52.38,52.38,0,0,0,10.88,7.49,84.47,84.47,0,0,0,13.39,5.62,107.48,107.48,0,0,0,14.14,3.54,75.61,75.61,0,0,0,13,1.24q20.79,0,31-6.93t10.19-20.11a21.9,21.9,0,0,0-3.4-12.27,35.65,35.65,0,0,0-9.49-9.5A100.18,100.18,0,0,0,67,128.87q-8.25-3.95-17.68-8.25-10.12-5.41-18.86-11A80.74,80.74,0,0,1,15.3,97.39,51.27,51.27,0,0,1,5.17,82.21,49.46,49.46,0,0,1,1.5,62.38q0-14,6.31-24.34A53.34,53.34,0,0,1,24.45,21,76.29,76.29,0,0,1,48,11a111.72,111.72,0,0,1,26.9-3.26q31.2,0,45.48,7.07V47.4Q103.42,35.21,76.8,35.2a78.36,78.36,0,0,0-14.63,1.38,43.64,43.64,0,0,0-13,4.58,28.36,28.36,0,0,0-9.36,8.18,20.08,20.08,0,0,0-3.6,12.07,22.84,22.84,0,0,0,2.77,11.51,29.73,29.73,0,0,0,8.11,8.87,83.69,83.69,0,0,0,13,7.84q7.69,3.81,17.82,8.25,10.4,5.4,19.62,11.37a92.14,92.14,0,0,1,16.22,13.17,58,58,0,0,1,11.1,16,47.15,47.15,0,0,1,4.09,20q0,15.11-6.1,25.51a49.16,49.16,0,0,1-16.43,16.92,73.1,73.1,0,0,1-23.79,9.43,134.15,134.15,0,0,1-28.42,2.91,120.71,120.71,0,0,1-12.28-.76q-7.28-.77-14.9-2.22a136,136,0,0,1-14.43-3.54A45.16,45.16,0,0,1,1.64,202Z"/><path class="cls-1" d="M178,38.11A19.33,19.33,0,0,1,164.51,33a16.88,16.88,0,0,1-5.62-13,17.28,17.28,0,0,1,5.62-13.17A19.06,19.06,0,0,1,178,1.5,19.7,19.7,0,0,1,191.9,6.77a17.2,17.2,0,0,1,5.68,13.17,17,17,0,0,1-5.68,12.83A19.54,19.54,0,0,1,178,38.11ZM194,209.92H161.8v-142H194Z"/><polygon class="cls-2" points="406.84 131.75 458.03 67.89 496.72 67.89 438.06 136.39 501.85 209.89 461.08 209.89 406.84 142.83 406.84 131.75"/><polygon class="cls-3" points="313.73 131.75 262.54 67.89 223.85 67.89 282.51 136.39 218.72 209.89 259.49 209.89 313.73 142.83 313.73 131.75"/><polygon class="cls-1" points="398.77 240.19 398.77 41.66 382.36 29.96 366.46 29.96 366.46 240.19 398.77 240.19"/><polygon class="cls-4" points="321.01 29.96 321.01 228.49 337.42 240.19 353.32 240.19 353.32 29.96 321.01 29.96"/></g></g></svg>